<?xml version="1.0"?>
<svg xmlns="http://www.w3.org/2000/svg" xmlns:xlink="http://www.w3.org/1999/xlink" xmlns:svgjs="http://svgjs.com/svgjs" version="1.1" width="512" height="512" x="0" y="0" viewBox="0 0 512 512" style="enable-background:new 0 0 512 512" xml:space="preserve"><g>
<g xmlns="http://www.w3.org/2000/svg">
	<g>
		<path d="M507.958,332.969c-1.898-1.496-4.241-2.022-6.625-2.03v-0.272c0-20.01-7.813-38.813-22-52.927    c-14.198-14.125-33.292-21.594-53.042-21.74l-31.604,0.156c-58.333-0.146-118.656-48.938-121.698-51.406    c-64.469-47.49-59.74-128.531-59.677-129.344c0.198-2.948-0.833-5.854-2.854-8.01c-2.01-2.156-4.833-3.396-7.792-3.396    C81.885,64,5.823,149.344,2.635,152.979C0.938,154.917,0,157.417,0,160v96.479c0,38.982,8.479,85.22,10.424,95.313    c-1.753,7.503-7.245,32.626-9.487,61.979c-0.667,8.74,2.385,17.458,8.385,23.927C15.396,444.24,23.979,448,32.896,448h84.438    c17.573,0,31.885-14.24,32-31.792c41.823,1.625,72.927,12.406,85.333,17.438v3.688c0,5.896,4.771,10.667,10.667,10.667    c14.625,0,28.745-0.35,42.501-0.898c0.059,0.001,0.107,0.034,0.165,0.034c0.102,0,0.185-0.055,0.285-0.057    c14.65-0.59,28.621-1.488,42.15-2.563c0.082,0.001,0.15,0.047,0.232,0.047c0.206,0,0.376-0.105,0.579-0.117    c14.775-1.184,28.75-2.595,42.01-4.18c0.027,0,0.049,0.016,0.077,0.016c0.103,0,0.189-0.056,0.292-0.059    c46.073-5.521,82.789-12.827,105.667-18.191c19.26-4.521,32.708-21.583,32.708-41.5v-39.198    C512,338.073,510.51,334.99,507.958,332.969z M21.333,164.219c13.479-13.844,77.396-74.229,170.573-78.635    c0.384,12.467,2.645,33.624,10.704,56.943l-30.471,9.505l-2.025-6.073c-1.865-5.583-7.875-8.604-13.49-6.74    c-5.583,1.854-8.604,7.896-6.74,13.49l10.667,32c1.49,4.469,5.646,7.292,10.115,7.292c1.115,0,2.25-0.177,3.375-0.552    c5.583-1.854,8.604-7.896,6.74-13.49l-1.892-5.676l31.967-9.971c5.103,10.452,11.79,20.849,19.988,30.978l-27.974,26.499    l-3.329-3.329c-4.167-4.167-10.917-4.167-15.083,0c-4.167,4.167-4.167,10.917,0,15.083l21.333,21.333    c2.083,2.083,4.813,3.125,7.542,3.125c2.729,0,5.458-1.042,7.542-3.125c4.167-4.167,4.167-10.917,0-15.083l-2.918-2.918    l27.398-25.941c4.613,4.342,9.193,8.706,14.634,12.714c1.98,1.621,8.615,6.882,18.418,13.508l-12.79,34.146l-6.242-2.081    c-5.656-1.865-11.625,1.156-13.49,6.74c-1.865,5.594,1.156,11.635,6.74,13.49l32,10.667c1.125,0.375,2.26,0.552,3.375,0.552    c4.469,0,8.625-2.823,10.115-7.292c1.865-5.594-1.156-11.635-6.74-13.49l-5.507-1.836l10.982-29.316    c25.642,14.854,61.465,30.669,97.868,30.756l31.677-0.156c0.094,0,0.188,0,0.271,0c14.198,0,27.542,5.51,37.615,15.531    C474.417,302.948,480,316.375,480,330.667v4.723c-36.534,8.292-127.242,27.277-192,27.277c-46.229,0-69.875-6.458-90.729-12.156    c-17.292-4.719-33.625-9.177-58.604-9.177H30.203c-2.919-16.443-8.87-53.758-8.87-84.854V164.219z M490.667,380.531    c0,9.958-6.677,18.49-16.25,20.729c-1.505,0.353-3.461,0.764-5.083,1.134v-7.728c0-5.896-4.771-10.667-10.667-10.667    S448,388.771,448,394.667v12.255c-6.578,1.319-13.682,2.642-21.333,3.99v-5.578c0-5.896-4.771-10.667-10.667-10.667    c-5.896,0-10.667,4.771-10.667,10.667v9.081c-6.861,1.055-13.863,2.086-21.333,3.074v-5.374c0-5.896-4.771-10.667-10.667-10.667    c-5.896,0-10.667,4.771-10.667,10.667v7.973c-6.859,0.764-14.077,1.423-21.333,2.086V416c0-5.896-4.771-10.667-10.667-10.667    c-5.896,0-10.667,4.771-10.667,10.667v7.93c-6.969,0.495-14.07,0.932-21.333,1.302V416c0-5.896-4.771-10.667-10.667-10.667    s-10.667,4.771-10.667,10.667v10.026c-7.079,0.217-14.025,0.514-21.333,0.589c-0.021-4.021-2.302-7.688-5.896-9.49    c-1.833-0.917-45.677-22.458-111.438-22.458c-5.896,0-10.667,4.771-10.667,10.667V416c0,5.885-4.781,10.667-10.667,10.667h-10.667    V416c0-5.896-4.771-10.667-10.667-10.667S85.333,410.104,85.333,416v10.667H64V416c0-5.896-4.771-10.667-10.667-10.667    c-5.896,0-10.667,4.771-10.667,10.667v10.667h-9.771c-3.031,0-5.854-1.229-7.927-3.469c-2-2.167-2.979-4.927-2.76-7.802    c1.688-22.063,5.417-42.073,7.656-52.729h108.802c22.115,0,36.417,3.906,52.979,8.427C213.802,377.146,238.917,384,288,384    c67.198,0,160.323-19.531,197.24-27.917c0.031-0.01,0.052-0.021,0.083-0.021l5.344-1.26V380.531z" fill="#000000" data-original="#000000" style=""/>
	</g>
</g>
<g xmlns="http://www.w3.org/2000/svg">
</g>
<g xmlns="http://www.w3.org/2000/svg">
</g>
<g xmlns="http://www.w3.org/2000/svg">
</g>
<g xmlns="http://www.w3.org/2000/svg">
</g>
<g xmlns="http://www.w3.org/2000/svg">
</g>
<g xmlns="http://www.w3.org/2000/svg">
</g>
<g xmlns="http://www.w3.org/2000/svg">
</g>
<g xmlns="http://www.w3.org/2000/svg">
</g>
<g xmlns="http://www.w3.org/2000/svg">
</g>
<g xmlns="http://www.w3.org/2000/svg">
</g>
<g xmlns="http://www.w3.org/2000/svg">
</g>
<g xmlns="http://www.w3.org/2000/svg">
</g>
<g xmlns="http://www.w3.org/2000/svg">
</g>
<g xmlns="http://www.w3.org/2000/svg">
</g>
<g xmlns="http://www.w3.org/2000/svg">
</g>
</g></svg>
