
<svg xmlns="http://www.w3.org/2000/svg" xmlns:xlink="http://www.w3.org/1999/xlink" xmlns:svgjs="http://svgjs.com/svgjs" version="1.1" width="80" height="80" x="0" y="0" viewBox="0 0 512 512" style="enable-background:new 0 0 512 512" xml:space="preserve" class=""><g><g xmlns="http://www.w3.org/2000/svg" id="XMLID_863_"><g id="XMLID_328_"><path id="XMLID_676_" d="m466.589 38.317c-28.436-15.831-61.926-15.049-89.592 2.094l-97.627 60.497c-7.156-3.159-15.059-4.926-23.37-4.926s-16.214 1.768-23.37 4.926l-59.372-36.791c-4.695-2.909-10.858-1.461-13.768 3.233-2.909 4.695-1.462 10.859 3.232 13.768l51.945 32.189c-10.349 10.494-16.751 24.89-16.751 40.758v1.98h-50.823c-5.522 0-10 4.477-10 10s4.478 10 10 10h50.823v1.981c0 15.868 6.402 30.264 16.751 40.758l-90.201 55.895c-21.407 13.266-47.325 13.872-69.327 1.621s-35.139-34.601-35.139-59.785v-100.94c0-41.656 33.868-67.551 66.611-68.521 5.521-.164 9.863-4.771 9.7-10.292-.161-5.419-4.604-9.704-9.99-9.704-.101 0-.201.001-.302.004-22.455.666-43.715 9.778-59.867 25.658-16.864 16.581-26.152 38.904-26.152 62.855v100.94c0 32.545 16.977 61.427 45.412 77.258 13.598 7.571 28.35 11.342 43.07 11.342 5.037 0 10.071-.443 15.053-1.325l-42.048 56.851c-2.804 3.791-2.578 9.026.541 12.562l95.669 108.437c1.918 2.173 4.659 3.385 7.498 3.384.614 0 1.233-.057 1.85-.172 3.464-.651 6.329-3.079 7.541-6.389l81.414-222.284 81.414 222.285c1.212 3.31 4.077 5.737 7.541 6.389.616.116 1.235.172 1.85.172 2.839 0 5.581-1.211 7.498-3.384l95.668-108.437c3.119-3.536 3.345-8.771.541-12.562l-42.047-56.851c4.982.882 10.015 1.325 15.053 1.325 14.719 0 29.475-3.772 43.07-11.342 28.435-15.832 45.412-44.713 45.412-77.259v-100.94c0-32.545-16.977-61.427-45.411-77.258zm-172.506 115.748v23.961c0 20.999-17.084 38.083-38.083 38.083s-38.083-17.084-38.083-38.083v-23.961c0-20.999 17.084-38.083 38.083-38.083s38.083 17.083 38.083 38.083zm-132.5 301.749-79.208-89.78 56.995-77.061 93.261-57.79c3.193 1.409 6.535 2.536 9.997 3.355zm268.041-89.779-79.207 89.779-81.045-221.276c3.462-.819 6.805-1.946 9.998-3.356l93.258 57.789zm62.376-149.52c0 25.184-13.137 47.534-35.141 59.784-22.004 12.249-47.92 11.644-69.327-1.621l-90.2-55.895c10.349-10.494 16.751-24.89 16.751-40.758v-1.981h50.823c5.522 0 10-4.477 10-10s-4.478-10-10-10h-50.823v-1.98c0-15.868-6.402-30.264-16.751-40.758l90.2-55.895c21.406-13.266 47.325-13.872 69.327-1.621 22.004 12.252 35.141 34.601 35.141 59.785z" fill="#000000" data-original="#000000" style="" class=""/><path id="XMLID_774_" d="m129.73 58.915c2.641 0 5.21-1.07 7.08-2.93 1.86-1.87 2.931-4.44 2.931-7.07s-1.07-5.21-2.931-7.079c-1.87-1.86-4.439-2.921-7.08-2.921-2.63 0-5.21 1.06-7.069 2.921-1.86 1.87-2.931 4.44-2.931 7.079 0 2.63 1.07 5.211 2.931 7.07 1.859 1.86 4.439 2.93 7.069 2.93z" fill="#000000" data-original="#000000" style="" class=""/></g></g></g></svg>
