<?xml version="1.0"?>
<svg xmlns="http://www.w3.org/2000/svg" xmlns:xlink="http://www.w3.org/1999/xlink" xmlns:svgjs="http://svgjs.com/svgjs" version="1.1" width="512" height="512" x="0" y="0" viewBox="0 0 512 512" style="enable-background:new 0 0 512 512" xml:space="preserve"><g><g xmlns="http://www.w3.org/2000/svg"><path d="m246.895 404.942c-4.706 2.023-7.571 6.635-7.3 11.75.272 5.115 3.609 9.397 8.502 10.91l16.19 5.008 6.692 15.569c2.03 4.723 6.676 7.569 11.749 7.3 5.115-.271 9.398-3.608 10.912-8.502l5.008-16.19 15.569-6.692c4.705-2.022 7.571-6.634 7.3-11.749s-3.607-9.398-8.501-10.912l-16.19-5.008-6.693-15.57c-2.022-4.706-6.661-7.571-11.749-7.299-5.114.272-9.397 3.608-10.911 8.502l-5.009 16.19zm22.727 6.558c3.258-1.401 5.727-4.147 6.775-7.536l3.072-9.932 4.107 9.552c1.4 3.257 4.146 5.727 7.534 6.775l9.932 3.072-9.552 4.105c-3.258 1.401-5.728 4.147-6.775 7.536l-3.071 9.931-4.107-9.551c-1.4-3.257-4.146-5.727-7.534-6.775l-9.932-3.072zm-9.122-116.529-21.015-6.501-8.688-20.208c-2.213-5.147-7.264-8.289-12.852-7.986-5.596.296-10.282 3.946-11.938 9.3l-6.501 21.015-20.209 8.688c-5.148 2.213-8.281 7.258-7.984 12.853s3.947 10.28 9.3 11.936l21.015 6.5 8.687 20.21c2.117 4.923 6.823 8.005 12.125 8.004 5.841 0 10.944-3.723 12.665-9.319l6.501-21.015 20.209-8.687c5.147-2.213 8.282-7.258 7.985-12.854s-3.947-10.281-9.3-11.936zm-25.568 20.018c-3.566 1.533-6.27 4.539-7.414 8.244l-5.321 17.202-7.11-16.541c-1.531-3.564-4.535-6.266-8.243-7.414l-17.202-5.321 16.543-7.111c3.565-1.533 6.268-4.539 7.412-8.244l5.32-17.201 7.111 16.541c1.531 3.565 4.536 6.268 8.243 7.414l17.201 5.321zm20.959-9.009-.006.002c.002-.001.004-.002.006-.002zm230.213-63.28-94.22-91.499c-2.522-2.37-5.802-4.37-9.045-5.705l-61.178-24.922-57.65-41.974v-23.701c13.761-.787 24.714-12.213 24.714-26.146 0-16.271-12.264-28.753-28.498-28.753-14.861 0-26.951 12.072-26.951 26.911 0 4.142 3.357 7.5 7.5 7.5s7.5-3.358 7.5-7.5c0-6.568 5.361-11.911 11.951-11.911 7.858 0 13.498 5.888 13.498 13.753 0 6.17-5.037 11.19-11.228 11.19-7.436 0-13.485 6.044-13.485 13.473v24.504l-56.678 42.657-62.936 24.961c-3.271 1.328-6.743 3.263-9.301 5.684l-94.197 91.477c-6.459 6.265-9.48 15.313-8.082 24.202 1.397 8.888 7.049 16.569 15.112 20.546l79.105 39.068v85.748c0 4.142 3.357 7.5 7.5 7.5s7.5-3.358 7.5-7.5v-241.164c-.003-5.153 3.19-9.759 7.892-11.62l53.611-21.262v14.127c0 37.756 30.718 68.474 68.475 68.474 11.676 0 23.206-2.993 33.344-8.654 3.616-2.02 4.91-6.588 2.891-10.205s-6.587-4.912-10.205-2.891c-7.907 4.416-16.908 6.75-26.029 6.75-29.486 0-53.475-23.988-53.475-53.474v-13.06l14.551 7.24c24.372 12.128 53.472 12.128 77.846.001l14.552-7.241v13.06c0 10.92-3.268 21.42-9.451 30.365-2.354 3.407-1.502 8.079 1.905 10.434 3.374 2.332 8.06 1.53 10.435-1.905 7.923-11.463 12.111-24.913 12.111-38.894v-14.016l51.696 21.06c4.729 1.926 7.784 6.47 7.784 11.576v313.536c0 6.893-5.607 12.5-12.5 12.5h-232.934c-6.893 0-12.5-5.607-12.5-12.5v-42.239c0-4.142-3.357-7.5-7.5-7.5s-7.5 3.358-7.5 7.5v42.239c0 15.164 12.336 27.5 27.5 27.5h232.932c15.164 0 27.5-12.336 27.5-27.5v-157.987l79.102-39.066c8.067-3.98 13.719-11.661 15.116-20.548 1.398-8.89-1.624-17.937-8.08-24.199zm-374.07 67.083-72.467-35.789c-3.755-1.852-6.282-5.288-6.934-9.426-.65-4.14.701-8.187 3.711-11.107l75.689-73.503v129.825zm177.218-176.688c-20.19 10.046-44.293 10.046-64.481-.001l-14.525-7.227 45.828-34.491 47.508 34.588zm190.114 131.473c-.651 4.138-3.179 7.574-6.938 9.428l-72.463 35.788v-129.827l75.692 73.506c3.008 2.918 4.36 6.965 3.709 11.105z" fill="#000000" data-original="#000000" style=""/></g></g></svg>
