<?xml version="1.0"?>
<svg xmlns="http://www.w3.org/2000/svg" id="OutLine" viewBox="0 0 512 512" width="512" height="512"><path d="M423.9,374.752l-48-304H375.9a8,8,0,0,0-5.7-6.445L306.592,46.134,295.311,20.751A8,8,0,0,0,288,16H224a8,8,0,0,0-7.311,4.751L205.408,46.135,141.8,64.308a8,8,0,0,0-5.7,6.445H136.1l-48,304A8,8,0,0,0,96,384h38.828l-14.66,70.368a8,8,0,0,0,4.254,8.787C127.1,464.5,190.86,496,256,496s128.9-31.5,131.578-32.845a8,8,0,0,0,4.254-8.787L377.172,384H416a8,8,0,0,0,7.9-9.248ZM359.046,77.762,337.111,224H294.035l-17.048-59.667,49.327-63.422a8,8,0,0,0,1-8.16L315.064,65.2ZM264,256V240h72v16Zm-88-16h40v16H176Zm56,0h16v16H232ZM201.155,95.1l21.778-49,25.422,76.267,19.008,66.526Zm64.055,28.014.23-.8,23.84-75.738,21.463,48.292-39.2,50.4ZM256.7,96.8,235.1,32h42Zm-59.763-31.6L184.689,92.751a8,8,0,0,0,.775,7.862l65.677,93.042a7.993,7.993,0,0,0,9.212,13.051L272.56,224H174.89L152.954,77.762ZM105.362,368,143.8,124.58,160,232.6v30.577L138.161,368Zm31.763,83.427L174.505,272H280V478.552A209.011,209.011,0,0,1,256,480C205.312,480,153.781,458.9,137.125,451.427ZM296,476.165V272h41.5l37.381,179.431C362.664,456.917,331.689,469.731,296,476.165ZM373.839,368,352,263.174v-30.58l16.2-108.016L406.638,368Z"/><circle cx="256" cy="296" r="8"/><circle cx="256" cy="344" r="8"/><circle cx="256" cy="392" r="8"/></svg>
