<svg enable-background="new 0 0 24 24" height="512" viewBox="0 0 24 24" width="512" xmlns="http://www.w3.org/2000/svg"><path d="m21.5 23h-19c-1.378 0-2.5-1.122-2.5-2.5s1.122-2.5 2.5-2.5h19c1.378 0 2.5 1.122 2.5 2.5s-1.122 2.5-2.5 2.5zm-19-4c-.827 0-1.5.673-1.5 1.5s.673 1.5 1.5 1.5h19c.827 0 1.5-.673 1.5-1.5s-.673-1.5-1.5-1.5z"/><path d="m12 7c-1.654 0-3-1.346-3-3s1.346-3 3-3 3 1.346 3 3-1.346 3-3 3zm0-5c-1.103 0-2 .897-2 2s.897 2 2 2 2-.897 2-2-.897-2-2-2z"/><path d="m21.5 19c-.276 0-.5-.224-.5-.5 0-6.341-4.038-11.5-9-11.5s-9 5.159-9 11.5c0 .276-.224.5-.5.5s-.5-.224-.5-.5c0-6.893 4.486-12.5 10-12.5s10 5.607 10 12.5c0 .276-.224.5-.5.5z"/><path d="m15.5 15.5c-.116 0-.231-.04-.325-.121l-3.175-2.72-3.175 2.721c-.198.169-.494.159-.679-.026l-2.7-2.7-1.815 1.302c-.225.16-.537.11-.698-.115s-.109-.537.115-.698l2.16-1.55c.199-.143.472-.121.645.053l2.673 2.672 3.148-2.698c.187-.161.464-.161.65 0l3.148 2.698 2.673-2.672c.172-.174.445-.196.645-.053l2.16 1.55c.224.161.276.473.115.698-.162.225-.474.275-.698.115l-1.815-1.302-2.7 2.7c-.096.097-.224.146-.352.146z"/></svg>